<?xml version="1.0" encoding="utf-8"?>
<!-- Generator: Adobe Illustrator 16.0.0, SVG Export Plug-In . SVG Version: 6.00 Build 0)  -->
<!DOCTYPE svg PUBLIC "-//W3C//DTD SVG 1.1//EN" "http://www.w3.org/Graphics/SVG/1.1/DTD/svg11.dtd">
<svg version="1.1" id="Calque_1" xmlns="http://www.w3.org/2000/svg" xmlns:xlink="http://www.w3.org/1999/xlink" x="0px" y="0px"
	 width="73.5px" height="91.065px" viewBox="17.88 0 73.5 91.065" enable-background="new 17.88 0 73.5 91.065"
	 xml:space="preserve">
<path fill="#444444" d="M60.97,47.644c-1.494,0.02,0.281,0.768,2.232,1.069c0.541-0.422,1.027-0.846,1.463-1.26
	C63.452,47.75,62.216,47.757,60.97,47.644"/>
<path fill="#444444" d="M68.987,45.645c0.893-1.229,1.541-2.573,1.77-3.963c-0.201,0.99-0.736,1.845-1.244,2.749
	c-2.793,1.759-0.264-1.044-0.002-2.111C66.509,46.103,69.097,44.588,68.987,45.645"/>
<path fill="#444444" d="M71.95,37.941c0.182-2.691-0.529-1.839-0.769-0.814C71.46,37.273,71.681,39.025,71.95,37.941"/>
<path fill="#444444" d="M55.302,1.163c0.799,0.142,1.725,0.252,1.592,0.443C57.769,1.413,57.966,1.239,55.302,1.163"/>
<path fill="#444444" d="M56.894,1.606l-0.561,0.117l0.523-0.048L56.894,1.606"/>
<path fill="#444444" d="M81.763,38.961c0.09,2.416-0.705,3.59-1.424,5.666l-1.293,0.643c-1.058,2.054,0.104,1.304-0.652,2.937
	c-1.652,1.467-5.006,4.589-6.08,4.875c-0.785-0.017,0.531-0.926,0.703-1.281c-2.209,1.516-1.773,2.276-5.152,3.199l-0.098-0.221
	c-8.33,3.92-19.901-3.847-19.75-14.443c-0.088,0.672-0.253,0.504-0.437,0.774c-0.43-5.451,2.518-10.926,7.489-13.165
	c4.863-2.406,10.564-1.42,14.045,1.829c-1.912-2.506-5.721-5.163-10.231-4.917c-4.421,0.072-8.558,2.881-9.938,5.932
	c-2.264,1.425-2.528,5.496-3.514,6.242c-1.329,9.76,2.497,13.975,8.97,18.936c1.016,0.686,0.286,0.791,0.422,1.313
	c-2.15-1.006-4.118-2.526-5.738-4.387c0.86,1.257,1.787,2.479,2.986,3.439c-2.029-0.685-4.738-4.913-5.527-5.085
	c3.495,6.258,14.178,10.975,19.775,8.634c-2.59,0.096-5.879,0.053-8.787-1.022c-1.225-0.629-2.884-1.93-2.588-2.173
	c7.637,2.851,15.522,2.158,22.129-3.137c1.682-1.31,3.518-3.537,4.049-3.567c-0.8,1.202,0.137,0.578-0.478,1.639
	c1.672-2.701-0.729-1.1,1.729-4.664l0.908,1.25c-0.34-2.244,2.785-4.966,2.467-8.512c0.717-1.084,0.799,1.168,0.039,3.662
	c1.055-2.767,0.279-3.212,0.549-5.496c0.291,0.768,0.678,1.583,0.875,2.394c-0.688-2.675,0.703-4.503,1.049-6.058
	c-0.342-0.15-1.061,1.182-1.227-1.976c0.025-1.372,0.383-0.719,0.52-1.057c-0.268-0.155-0.975-1.207-1.403-3.224
	c0.31-0.475,0.832,1.229,1.256,1.298c-0.272-1.603-0.741-2.826-0.762-4.057c-1.24-2.59-0.438,0.346-1.443-1.112
	c-1.319-4.114,1.095-0.955,1.259-2.823c1.998,2.895,3.137,7.385,3.661,9.244c-0.399-2.267-1.045-4.464-1.834-6.589
	c0.609,0.257-0.979-4.663,0.791-1.405c-1.889-6.945-8.077-13.435-13.772-16.479c0.695,0.637,1.574,1.437,1.26,1.563
	c-2.834-1.685-2.336-1.818-2.742-2.53c-2.305-0.939-2.459,0.077-3.983,0.002c-4.351-2.308-5.188-2.063-9.19-3.507l0.182,0.852
	c-2.881-0.96-3.357,0.362-6.47,0.002c-0.189-0.147,0.998-0.536,1.976-0.677c-2.786,0.368-2.656-0.55-5.382,0.101
	c0.671-0.471,1.383-0.784,2.099-1.184c-2.271,0.138-5.424,1.322-4.451,0.244c-3.705,1.654-10.286,3.975-13.979,7.438l-0.116-0.776
	c-1.692,2.031-7.379,6.066-7.832,8.699l-0.453,0.105c-0.879,1.491-1.45,3.18-2.148,4.713c-1.151,1.963-1.688,0.756-1.524,1.064
	c-2.265,4.592-3.392,8.45-4.363,11.616c0.692,1.035,0.017,6.232,0.278,10.391c-1.136,20.543,14.417,40.488,31.419,45.092
	c2.492,0.893,6.197,0.861,9.349,0.949c-3.719-1.064-4.198-0.562-7.822-1.826c-2.613-1.232-3.185-2.637-5.037-4.244l0.733,1.295
	c-3.63-1.285-2.111-1.59-5.065-2.525l0.783-1.02c-1.177-0.091-3.117-1.982-3.647-3.033l-1.288,0.051
	c-1.546-1.906-2.371-3.283-2.31-4.35l-0.416,0.742c-0.471-0.81-5.691-7.159-2.983-5.681c-0.503-0.458-1.172-0.747-1.897-2.066
	l0.551-0.629c-1.301-1.677-2.398-3.826-2.314-4.542c0.695,0.938,1.177,1.114,1.655,1.275c-3.291-8.164-3.476-0.449-5.967-8.31
	l0.526-0.042c-0.403-0.611-0.65-1.27-0.974-1.919l0.23-2.285c-2.368-2.736-0.662-11.645-0.319-16.53
	c0.235-1.986,1.977-4.101,3.3-7.417l-0.806-0.138c1.542-2.688,8.802-10.799,12.166-10.383c1.629-2.046-0.324-0.008-0.643-0.522
	c3.579-3.703,4.704-2.616,7.119-3.283c2.603-1.545-2.235,0.604-1.001-0.589c4.503-1.149,3.19-2.614,9.063-3.197
	c0.62,0.352-1.437,0.544-1.953,1.001c3.75-1.836,11.869-1.417,17.145,1.018c6.117,2.861,12.994,11.313,13.266,19.267l0.31,0.083
	c-0.156,3.162,0.483,6.819-0.627,10.177L81.763,38.961"/>
<path fill="#444444" d="M44.659,49.694l-0.211,1.047c0.983,1.335,1.763,2.781,3.016,3.821
	C46.562,52.803,45.893,52.076,44.659,49.694"/>
<path fill="#444444" d="M46.98,49.604c-0.52-0.576-0.826-1.268-1.172-1.956c0.33,1.211,1.006,2.252,1.633,3.312L46.98,49.604"/>
<path fill="#444444" d="M88.063,40.674l-0.219,0.552c-0.402,2.858-1.273,5.686-2.605,8.309
	C86.712,46.768,87.66,43.741,88.063,40.674"/>
<path fill="#444444" d="M55.599,0.446c1.01-0.369,2.482-0.203,3.557-0.446c-1.398,0.117-2.789,0.187-4.162,0.362L55.599,0.446"/>
<path fill="#444444" d="M20.129,19.308c0.233,2.154-1.62,2.991,0.41,1.569C21.629,18.423,20.115,20.2,20.129,19.308"/>
<path fill="#444444" d="M17.741,29.281c0.469-1.437,0.553-2.299,0.732-3.132C17.18,27.803,17.877,28.156,17.741,29.281"/>
</svg>
