<?xml version="1.0" encoding="utf-8"?>
<!-- Generator: Adobe Illustrator 16.0.0, SVG Export Plug-In . SVG Version: 6.00 Build 0)  -->
<!DOCTYPE svg PUBLIC "-//W3C//DTD SVG 1.1//EN" "http://www.w3.org/Graphics/SVG/1.1/DTD/svg11.dtd">
<svg version="1.1"
	 id="svg1" inkscape:version="0.48.2 r9819" sodipodi:docname="rhel.svg" sodipodi:version="0.30.1" xmlns:dc="http://purl.org/dc/elements/1.1/" xmlns:cc="http://creativecommons.org/ns#" xmlns:rdf="http://www.w3.org/1999/02/22-rdf-syntax-ns#" xmlns:svg="http://www.w3.org/2000/svg" xmlns:sodipodi="http://sodipodi.sourceforge.net/DTD/sodipodi-0.dtd" xmlns:inkscape="http://www.inkscape.org/namespaces/inkscape"
	 xmlns="http://www.w3.org/2000/svg" xmlns:xlink="http://www.w3.org/1999/xlink" x="0px" y="0px" width="639.781px"
	 height="578.39px" viewBox="0 0 639.781 578.39" enable-background="new 0 0 639.781 578.39" xml:space="preserve">
<sodipodi:namedview  inkscape:current-layer="svg1" inkscape:window-maximized="0" inkscape:window-y="146" inkscape:window-x="892" inkscape:window-width="1426" inkscape:window-height="1084" inkscape:cy="372.04724" inkscape:zoom="1.2686561" showgrid="false" inkscape:cx="232.14818" id="base">
	</sodipodi:namedview>
<path fill="#FFFFFF" stroke="#000444" d="M530.539,80.217L530.539,80.217z"/>
<g>
	<path fill="#444444" d="M384.093,476.761c-5.264-2.164-10.777,5.189-16.088,5.637c-9.629,0.816-16.172-10.26-26.254-7.619
		c-5.014,1.314-13.73,9.525-7.1,14.254c3.566,2.543,9.258,2.033,13.35,3.295c9.883,3.047,17.76,9.355,28.756,5.906
		C383.66,496.07,395.648,481.513,384.093,476.761z"/>
	<path fill="#444444" d="M554.855,104.649C451.33-9.06,281.371-32.623,150.818,48.635S-33.639,292.789,22.674,435.882
		c9.02-4.088,11.703-7.475,8.951-26.918c15.621,0.252,42.853,0.031,56.493,0.121c6.712,0.162,15.494-1.711,21.087,0.32
		c14.121,5.041,24.563,29.076,45.096,34.779c7.881,2.146,17.757-4.312,17.015-10.762c-1.057-9.061-11.55-9.342-21.49-22.762
		c-13.032-17.339-24.27-38.896-10.892-53.703c3.9-4.275,18.157-11.719,32.16-3.318c21.301,12.867,24.529,31.85,34.937,35.246
		c8.28,2.664,13.395-4.424,21.26-0.949c17.023,7.583,29.418,36.086,47.89,44.328c22.976,10.188,52.299,1.592,66.514,1.602
		c13.48,0.01,17.664,3.246,34.561,3.916c9.137,0.223,19.506-1.686,29.582-1.859c12.807-0.221,18.447,1.498,28.025,2.182
		c9.197,0.639,16.418-3.166,21.973-2.398c8.061,1.139,3.711,16.359-1.141,32.449c-2.121,6.465-1.117,15.977-5.715,30.852
		c-3.727,11.781-17.619,29.359-29.82,43.916c-12.156,14.711-25.805,26.828-19.828,32.738c11.156,10.695,36.27-22.406,55.291-34.201
		c13.98-8.773,23.059-9.463,28.85-14.709c7.711-7.145,0.678-10.016,6.584-16.562c2.74-3.225,14.828-1.273,24.844-1.199
		c18.686,0.455,45.123-2.574,57.746,3.162C669.48,385.393,658.376,218.358,554.855,104.649z M563.712,362.773
		c-30.951,37.699-92.096,56.963-139.445,54.881c-99.408-4.371-198.265-34.621-278.806-94.426
		c-23.31-17.309-44.244-36.631-63.87-57.974c-10.438-11.351-20.649-24.812-16.731-41.259c2.753-11.556,14.37-20.515,24.339-25.85
		c24.899-13.321,59.057-9.157,86.268-9.157c-2.725,11.913-6.468,24.453-1.014,36.258c5.435,11.762,19.045,18.463,29.769,24.65
		c25.782,14.871,53.137,27.666,81.267,37.432c14.399,4.999,29.742,11.194,45.008,12.719c3.773,0.377,14.021,1.757,15.871-2.829
		c2.246-5.568-10.002-14.852-11.455-20.712c-2.01-8.113-0.641-16.785-6.158-23.736c-8.145-10.26-22.576-13.59-34.515-17.172
		c-22.619-6.787-45.422-13.452-67.513-21.845c-20.32-7.721-45.759-19.661-41.77-46.019c5.54-36.6,12.923-95.066,56.773-101.971
		c28.039-4.416,55.65,8.902,83.767,6.839c37.521-2.753,76.602-19.103,108.752,11.478c11.891,11.309,16.826,27.528,22.773,42.396
		c11.527,28.814,29.576,61.002,30.957,92.518c0.756,17.234-8.74,36.283-6.201,52.511c11.816-6.849,17.178-18.75,21.254-31.256
		c22.086,3.308,63.105,24.083,74.35,43.758C590.722,307.35,579.613,343.408,563.712,362.773z"/>
</g>
<path fill="#444444" d="M358.003,85.218v1.25c6.299,1.504,28.887,2.091,27.605,12.517c-0.594,4.824-7.281,8.8-10.102,12.488
	c9.805,2.898,48.963,1.299,37.68-17.484C403.654,78.119,373.037,81.597,358.003,85.218z"/>
<path fill="#444444" d="M224.508,122.828c-4.596,2.353-5.167,9.158-5.264,13.65c-0.287,13.531,8.746,23.517,21.236,28.278
	c6.877,2.622,12.478-3.218,18.753-5.32c15.185-5.086,40.712-0.727,53.456-10.639c9.595-7.463-7.646-10.594-12.197-11.599
	c-17.624-3.893-35.762,3.8-52.511-2.105C241.489,132.803,231.607,119.193,224.508,122.828z"/>
</svg>
