<?xml version="1.0" encoding="utf-8"?>
<!-- Generator: Adobe Illustrator 16.0.0, SVG Export Plug-In . SVG Version: 6.00 Build 0)  -->
<!DOCTYPE svg PUBLIC "-//W3C//DTD SVG 1.1//EN" "http://www.w3.org/Graphics/SVG/1.1/DTD/svg11.dtd">
<svg version="1.1" id="Layer_1" xmlns="http://www.w3.org/2000/svg" xmlns:xlink="http://www.w3.org/1999/xlink" x="0px" y="0px"
	 width="239px" height="247px" viewBox="191.571 45.5 239 247" enable-background="new 191.571 45.5 239 247" xml:space="preserve">
<path d="M214.791,147.366c-12.547,0-22.712,10.166-22.712,22.712c0,12.54,10.165,22.705,22.712,22.705
	c12.54,0,22.705-10.165,22.705-22.705C237.496,157.532,227.331,147.366,214.791,147.366z M376.919,250.57
	c-10.861,6.273-14.585,20.153-8.311,31.008c6.266,10.861,20.146,14.584,31.007,8.311c10.859-6.266,14.584-20.146,8.311-31.008
	C401.66,248.027,387.772,244.304,376.919,250.57z M264.114,170.078c0-22.44,11.146-42.265,28.201-54.27l-16.601-27.805
	c-19.867,13.28-34.649,33.573-40.792,57.34c7.168,5.849,11.756,14.753,11.756,24.734c0,9.975-4.588,18.879-11.756,24.728
	c6.135,23.774,20.917,44.068,40.792,57.348l16.601-27.812C275.26,212.343,264.114,192.519,264.114,170.078z M330.439,103.746
	c34.649,0,63.077,26.567,66.062,60.448l32.356-0.477c-1.593-25.013-12.52-47.468-29.31-63.98
	c-8.634,3.262-18.606,2.763-27.227-2.206c-8.636-4.983-14.05-13.389-15.529-22.514c-8.392-2.316-17.224-3.584-26.355-3.584
	c-15.696,0-30.538,3.687-43.714,10.209l15.778,28.274C310.988,105.966,320.457,103.746,330.439,103.746z M330.439,236.403
	c-9.982,0-19.451-2.221-27.938-6.17l-15.778,28.273c13.177,6.53,28.018,10.218,43.716,10.218c9.131,0,17.963-1.269,26.354-3.592
	c1.48-9.125,6.896-17.523,15.529-22.515c8.626-4.977,18.593-5.467,27.227-2.205c16.79-16.512,27.717-38.967,29.31-63.98
	l-32.364-0.477C393.517,209.845,365.09,236.403,330.439,236.403z M376.911,89.572c10.861,6.272,24.742,2.557,31.008-8.304
	c6.273-10.861,2.558-24.742-8.304-31.016c-10.861-6.266-24.741-2.543-31.017,8.318C362.334,69.425,366.057,83.306,376.911,89.572z"
	/>
</svg>
